# xmcd
#
# Track frame offsets: 
#        150
#        16975
#        30495
#        40905
#        55617
#        69220
#        83527
#        98472
#        114272
#        125165
#
# Disc length: 1898 seconds
#
# Revision: 3
# Processed by: cddbd v1.4PL0 Copyright (c) Steve Scherf et al.
# Submitted via: ExactAudioCopy v0.90b3
#
DISCID=6a07680a
DTITLE=Ricky Skaggs - Super Hits
DYEAR=1995
DGENRE=Country
TTITLE0=Cajun Moon
TTITLE1=Crying My Heart Out Over You
TTITLE2=I Don't Care
TTITLE3=Heartbroke
TTITLE4=I Wouldn't Change You If I Could
TTITLE5=Highway 40 Blues
TTITLE6=Don't Cheat In Our Hometown
TTITLE7=Honey (Open That Door)
TTITLE8=Uncle Pen
TTITLE9=Country Boy
EXTD=
EXTT0=
EXTT1=
EXTT2=
EXTT3=
EXTT4=
EXTT5=
EXTT6=
EXTT7=
EXTT8=
EXTT9=
PLAYORDER=
